<svg width="19" height="18" viewBox="0 0 19 18" fill="none" xmlns="http://www.w3.org/2000/svg">
<path d="M9.57167 17.1629C4.84142 17.1629 0.990234 13.3117 0.990234 8.58144C0.990234 3.85118 4.84142 0 9.57167 0C14.3019 0 18.1531 3.85118 18.1531 8.58144C18.1531 13.3117 14.3019 17.1629 9.57167 17.1629ZM9.57167 1.25582C5.52793 1.25582 2.24605 4.54607 2.24605 8.58144C2.24605 12.6168 5.52793 15.9071 9.57167 15.9071C13.6154 15.9071 16.8973 12.6168 16.8973 8.58144C16.8973 4.54607 13.6154 1.25582 9.57167 1.25582Z" fill="#F8F8F8"/>
<path d="M18.3627 17.9999C18.2037 17.9999 18.0446 17.9413 17.919 17.8157L16.2446 16.1413C16.0018 15.8985 16.0018 15.4967 16.2446 15.2539C16.4874 15.0111 16.8892 15.0111 17.132 15.2539L18.8065 16.9283C19.0493 17.1711 19.0493 17.573 18.8065 17.8157C18.6809 17.9413 18.5218 17.9999 18.3627 17.9999Z" fill="#F8F8F8"/>
</svg>
