<svg width="18" height="18" viewBox="0 0 18 18" fill="none" xmlns="http://www.w3.org/2000/svg">
<path d="M12.771 0H5.229C1.953 0 0 1.953 0 5.229V12.762C0 16.047 1.953 18 5.229 18H12.762C16.038 18 17.991 16.047 17.991 12.771V5.229C18 1.953 16.047 0 12.771 0ZM9 12.492C7.074 12.492 5.508 10.926 5.508 9C5.508 7.074 7.074 5.508 9 5.508C10.926 5.508 12.492 7.074 12.492 9C12.492 10.926 10.926 12.492 9 12.492ZM14.328 4.392C14.283 4.5 14.22 4.599 14.139 4.689C14.049 4.77 13.95 4.833 13.842 4.878C13.734 4.923 13.617 4.95 13.5 4.95C13.257 4.95 13.032 4.86 12.861 4.689C12.78 4.599 12.717 4.5 12.672 4.392C12.627 4.284 12.6 4.167 12.6 4.05C12.6 3.933 12.627 3.816 12.672 3.708C12.717 3.591 12.78 3.501 12.861 3.411C13.068 3.204 13.383 3.105 13.671 3.168C13.734 3.177 13.788 3.195 13.842 3.222C13.896 3.24 13.95 3.267 14.004 3.303C14.049 3.33 14.094 3.375 14.139 3.411C14.22 3.501 14.283 3.591 14.328 3.708C14.373 3.816 14.4 3.933 14.4 4.05C14.4 4.167 14.373 4.284 14.328 4.392Z" fill="#F9F9F9"/>
</svg>
