<svg width="1440" height="3971" viewBox="0 0 1440 3971" fill="none" xmlns="http://www.w3.org/2000/svg">
<g filter="url(#filter0_f_701_105)">
<path d="M-213.394 2974.91C-383.169 2697.33 -466.37 2811.71 -486.748 2903.6C-496.211 2962.27 -428.795 3080.53 -305.157 3152.01C-181.519 3223.49 4.89925 3740.66 209.215 3954.22C413.531 4167.79 554.911 3903.49 492.652 3593.19C430.392 3282.88 -1.17435 3321.89 -213.394 2974.91Z" fill="url(#paint0_linear_701_105)"/>
</g>
<g filter="url(#filter1_f_701_105)">
<path d="M458.262 451.96C159.173 323.815 157.506 465.247 194.058 551.982C220.292 605.308 343.704 662.742 485.902 649.496C628.101 636.25 1079.4 950.165 1369.62 1006.11C1659.83 1062.05 1622.2 764.694 1391.86 547.646C1161.52 330.599 832.123 612.141 458.262 451.96Z" fill="url(#paint1_linear_701_105)"/>
</g>
<g filter="url(#filter2_f_701_105)">
<path d="M1183 1507C883.911 1378.86 157.505 2229.25 194.058 2315.98C220.291 2369.31 343.18 2418.63 485.902 2413.5C1208.5 2387.5 892.787 3071.06 1183 3127C1473.21 3182.94 1622.2 2528.69 1391.86 2311.65C1161.52 2094.6 1556.86 1667.18 1183 1507Z" fill="url(#paint2_linear_701_105)" fill-opacity="0.85"/>
</g>
<g filter="url(#filter3_f_701_105)">
<path d="M-326.382 1811.7C-570.608 2026.71 -443.615 2088.99 -349.59 2093.25C-290.165 2092.47 -185.275 2005.71 -136.134 1871.62C-86.9942 1737.53 390.384 1464.89 565.602 1226.88C740.819 988.86 456.14 895.068 161.178 1009.79C-133.785 1124.52 -21.0983 1542.94 -326.382 1811.7Z" fill="url(#paint3_linear_701_105)"/>
</g>
<defs>
<filter id="filter0_f_701_105" x="-887.627" y="2400.24" width="1795.1" height="2031.31" filterUnits="userSpaceOnUse" color-interpolation-filters="sRGB">
<feFlood flood-opacity="0" result="BackgroundImageFix"/>
<feBlend mode="normal" in="SourceGraphic" in2="BackgroundImageFix" result="shape"/>
<feGaussianBlur stdDeviation="200" result="effect1_foregroundBlur_701_105"/>
</filter>
<filter id="filter1_f_701_105" x="-222.151" y="0.576172" width="2198.14" height="1412.41" filterUnits="userSpaceOnUse" color-interpolation-filters="sRGB">
<feFlood flood-opacity="0" result="BackgroundImageFix"/>
<feBlend mode="normal" in="SourceGraphic" in2="BackgroundImageFix" result="shape"/>
<feGaussianBlur stdDeviation="200" result="effect1_foregroundBlur_701_105"/>
</filter>
<filter id="filter2_f_701_105" x="-307.272" y="993.876" width="2311.89" height="2636.5" filterUnits="userSpaceOnUse" color-interpolation-filters="sRGB">
<feFlood flood-opacity="0" result="BackgroundImageFix"/>
<feBlend mode="normal" in="SourceGraphic" in2="BackgroundImageFix" result="shape"/>
<feGaussianBlur stdDeviation="250" result="effect1_foregroundBlur_701_105"/>
</filter>
<filter id="filter3_f_701_105" x="-867.654" y="561.021" width="1886.97" height="1932.23" filterUnits="userSpaceOnUse" color-interpolation-filters="sRGB">
<feFlood flood-opacity="0" result="BackgroundImageFix"/>
<feBlend mode="normal" in="SourceGraphic" in2="BackgroundImageFix" result="shape"/>
<feGaussianBlur stdDeviation="200" result="effect1_foregroundBlur_701_105"/>
</filter>
<linearGradient id="paint0_linear_701_105" x1="490.62" y1="3188.12" x2="-181.535" y2="2965.13" gradientUnits="userSpaceOnUse">
<stop offset="0.0583493" stop-color="#B46AFF"/>
<stop offset="1" stop-color="#2C42FF" stop-opacity="0.76"/>
</linearGradient>
<linearGradient id="paint1_linear_701_105" x1="966.75" y1="386.053" x2="828.658" y2="847.989" gradientUnits="userSpaceOnUse">
<stop stop-color="#B46AFF"/>
<stop offset="1" stop-color="#2C42FF" stop-opacity="0.76"/>
</linearGradient>
<linearGradient id="paint2_linear_701_105" x1="567" y1="1819" x2="1309.5" y2="3044.5" gradientUnits="userSpaceOnUse">
<stop stop-color="#B46AFF"/>
<stop offset="1" stop-color="#6590FF" stop-opacity="0.64"/>
</linearGradient>
<linearGradient id="paint3_linear_701_105" x1="-237.5" y1="1081.5" x2="-341.5" y2="1782" gradientUnits="userSpaceOnUse">
<stop offset="0.0583493" stop-color="#B46AFF"/>
<stop offset="1" stop-color="#2C42FF" stop-opacity="0.76"/>
</linearGradient>
</defs>
</svg>
