<svg width="141" height="20" viewBox="0 0 141 20" fill="none" xmlns="http://www.w3.org/2000/svg">
<path d="M10.5 0L12.7451 6.90983H20.0106L14.1327 11.1803L16.3779 18.0902L10.5 13.8197L4.62215 18.0902L6.86729 11.1803L0.989435 6.90983H8.25486L10.5 0Z" fill="#FFBB36"/>
<path d="M70.5 0L72.7451 6.90983H80.0106L74.1327 11.1803L76.3779 18.0902L70.5 13.8197L64.6221 18.0902L66.8673 11.1803L60.9894 6.90983H68.2549L70.5 0Z" fill="#FFBB36"/>
<path d="M40.5 0L42.7451 6.90983H50.0106L44.1327 11.1803L46.3779 18.0902L40.5 13.8197L34.6221 18.0902L36.8673 11.1803L30.9894 6.90983H38.2549L40.5 0Z" fill="#FFBB36"/>
<path d="M100.5 0L102.745 6.90983H110.011L104.133 11.1803L106.378 18.0902L100.5 13.8197L94.6221 18.0902L96.8673 11.1803L90.9894 6.90983H98.2549L100.5 0Z" fill="#FFBB36"/>
<path d="M130.5 0L132.745 6.90983H140.011L134.133 11.1803L136.378 18.0902L130.5 13.8197L124.622 18.0902L126.867 11.1803L120.989 6.90983H128.255L130.5 0Z" fill="#FFBB36"/>
</svg>
