<svg width="241" height="34" viewBox="0 0 241 34" fill="none" xmlns="http://www.w3.org/2000/svg">
<path d="M20.9565 0V8.75276L0 29.4242V20.6714L20.9565 0Z" fill="#FFFAFA"/>
<path d="M20.9561 11.4531V18.0953L5.03418 33.8006V27.1584L20.9561 11.4531Z" fill="#FFFAFA"/>
<path d="M20.9565 32.4349H9.66016L20.9565 21.3232V32.4349Z" fill="#FFFAFA"/>
<path d="M1.66771 14.7122H0V22.6269H1.66771V14.7122Z" fill="#FFFAFA"/>
<path d="M1.25801 13.5947H0.376953V17.1631H1.25801V13.5947Z" fill="#FFFAFA"/>
<path d="M1.03916 12.26H0.598633V14.2769H1.03916V12.26Z" fill="#FFFAFA"/>
<path d="M0.598633 12.2593L0.818896 9.31152L1.03916 12.2593" fill="#FFFAFA"/>
<path d="M20.9561 0V8.75276L41.9126 29.4242V20.6714L20.9561 0Z" fill="#FFFAFA"/>
<path d="M20.9561 11.4531V18.0953L36.8465 33.8006V27.1584L20.9561 11.4531Z" fill="#FFFAFA"/>
<path d="M20.9561 21.3232L32.221 32.4349H20.9561V21.3232Z" fill="#FFFAFA"/>
<path d="M40.2405 22.6221L41.9082 22.6221L41.9082 14.7073L40.2405 14.7073L40.2405 22.6221Z" fill="#FFFAFA"/>
<path d="M40.6189 17.1719L41.5 17.1719L41.5 13.6035L40.6189 13.6035L40.6189 17.1719Z" fill="#FFFAFA"/>
<path d="M40.8397 14.2803L41.2803 14.2803L41.2803 12.2634L40.8397 12.2634L40.8397 14.2803Z" fill="#FFFAFA"/>
<path d="M41.2841 12.2593L41.0638 9.31152L40.875 12.2593" fill="#FFFAFA"/>
<path d="M72.2788 9.00098V29.2379H65.9855V21.3542H61.1712V29.2379H54.8779V9.00098H61.1712V16.4501H65.9855V9.00098H72.2788Z" fill="#FFFAFA"/>
<path d="M82.1272 9.00098V29.2379H75.834V9.00098H82.1272Z" fill="#FFFAFA"/>
<path d="M124.134 9.00098V29.2379H117.841V21.3542H113.027V29.2379H106.733V9.00098H113.027V16.4501H117.841V9.00098H124.134Z" fill="#FFFAFA"/>
<path d="M143.833 13.8429V29.2379H137.854V13.8429H133.606V9.00098H148.081V13.8429H143.833Z" fill="#FFFAFA"/>
<path d="M186.626 29.2379H179.641L176.652 21.5094H174.669V29.2379H168.376V9.00098H179.075C181.434 9.00098 183.26 9.55967 184.581 10.646C185.903 11.7323 186.532 13.1911 186.532 14.9603C186.532 16.1398 186.28 17.164 185.808 18.0641C185.336 18.9642 184.361 19.7402 182.882 20.423L186.626 29.2379ZM174.669 17.164H177.344C178.131 17.164 178.76 17.0088 179.263 16.6674C179.735 16.326 179.987 15.8604 179.987 15.2396C179.987 13.936 179.169 13.2842 177.564 13.2842H174.669V17.164Z" fill="#FFFAFA"/>
<path d="M225.834 24.3959V29.2379H210.416V9.00098H225.834V13.6567H216.583V16.6053H224.072V21.1059H216.583V24.3959H225.834Z" fill="#FFFAFA"/>
<path d="M236.752 13.8429V29.2379H230.773V13.8429H226.525V9.00098H241V13.8429H236.752Z" fill="#FFFAFA"/>
<path d="M94.1787 17.909H103.43V29.2379H99.528V27.1273C98.2693 28.7413 96.3813 29.5483 93.864 29.5483C91.2209 29.5483 89.0497 28.6482 87.3505 26.817C85.6513 24.9857 84.8018 22.5337 84.8018 19.4299C84.8018 16.4192 85.6199 13.874 87.2876 11.7945C88.9238 9.74597 91.3782 8.69067 94.6507 8.69067C97.1051 8.69067 99.056 9.31144 100.566 10.5219C102.077 11.7635 103.021 13.5016 103.461 15.7363H97.2624C96.8848 14.0292 95.9723 13.1602 94.5563 13.1602C92.511 13.1602 91.4726 15.0845 91.4726 18.9643C91.4726 21.2922 91.7873 22.8441 92.4481 23.589C93.1089 24.3339 93.927 24.7064 94.8395 24.7064C95.5947 24.7064 96.2555 24.4891 96.7904 24.0235C97.3253 23.558 97.6085 22.9372 97.6085 22.1612H94.2102V17.909H94.1787Z" fill="#FFFAFA"/>
<path d="M166.488 29.2379H160.698L159.534 25.265L158.338 20.8265L156.765 14.9603L155.223 20.8265L154.027 25.265L152.957 29.2379H147.073L153.398 9.00098H160.069L166.488 29.2379Z" fill="#FFFAFA"/>
<path d="M197.828 17.909H207.079V29.2379H203.177V27.1273C201.919 28.7413 200.031 29.5483 197.513 29.5483C194.87 29.5483 192.699 28.6482 191 26.817C189.301 24.9857 188.451 22.5337 188.451 19.4299C188.451 16.4192 189.269 13.874 190.906 11.7945C192.542 9.74597 194.996 8.69067 198.269 8.69067C200.723 8.69067 202.674 9.31144 204.184 10.5219C205.663 11.7635 206.639 13.5016 207.079 15.7363L200.975 16.3261C200.66 14.2155 199.748 13.1602 198.174 13.1602C196.097 13.1602 195.091 15.0845 195.091 18.9643C195.091 21.2922 195.437 22.8441 196.097 23.589C196.758 24.3339 197.545 24.7064 198.489 24.7064C199.244 24.7064 199.905 24.4891 200.44 24.0235C200.975 23.558 201.258 22.9372 201.258 22.1612H197.86V17.909H197.828Z" fill="#FFFAFA"/>
</svg>
