<svg width="205" height="42" viewBox="0 0 205 42" fill="none" xmlns="http://www.w3.org/2000/svg">
<path d="M18.5443 0.682129V11.1304L0.839844 35.8061V25.3578L18.5443 0.682129Z" fill="#FFFAFA"/>
<path d="M18.5439 14.354V22.2828L5.09277 41.0304V33.1016L18.5439 14.354Z" fill="#FFFAFA"/>
<path d="M18.5444 39.3998H9.00098L18.5444 26.1357V39.3998Z" fill="#FFFAFA"/>
<path d="M2.24876 18.2441H0.839844V27.692H2.24876V18.2441Z" fill="#FFFAFA"/>
<path d="M1.90351 16.9102H1.15918V21.1697H1.90351V16.9102Z" fill="#FFFAFA"/>
<path d="M1.7169 15.3169H1.34473V17.7245H1.7169V15.3169Z" fill="#FFFAFA"/>
<path d="M1.34473 15.3162L1.53081 11.7974L1.7169 15.3162" fill="#FFFAFA"/>
<path d="M18.5439 0.682129V11.1304L36.2484 35.8061V25.3578L18.5439 0.682129Z" fill="#FFFAFA"/>
<path d="M18.5439 14.354V22.2828L31.9685 41.0304V33.1016L18.5439 14.354Z" fill="#FFFAFA"/>
<path d="M18.5439 26.1357L28.0608 39.3998H18.5439V26.1357Z" fill="#FFFAFA"/>
<path d="M34.8362 27.6865L36.2451 27.6865L36.2451 18.2386L34.8362 18.2386L34.8362 27.6865Z" fill="#FFFAFA"/>
<path d="M35.1551 21.1807L35.8994 21.1807L35.8994 16.9211L35.1551 16.9211L35.1551 21.1807Z" fill="#FFFAFA"/>
<path d="M35.3417 17.7285L35.7139 17.7285L35.7139 15.3209L35.3417 15.3209L35.3417 17.7285Z" fill="#FFFAFA"/>
<path d="M35.7177 15.3162L35.5316 11.7974L35.3721 15.3162" fill="#FFFAFA"/>
<path d="M61.9018 11.4268V35.5837H56.5851V26.1729H52.5178V35.5837H47.2012V11.4268H52.5178V20.3189H56.5851V11.4268H61.9018Z" fill="#FFFAFA"/>
<path d="M70.2219 11.4268V35.5837H64.9053V11.4268H70.2219Z" fill="#FFFAFA"/>
<path d="M105.711 11.4268V35.5837H100.395V26.1729H96.3274V35.5837H91.0107V11.4268H96.3274V20.3189H100.395V11.4268H105.711Z" fill="#FFFAFA"/>
<path d="M122.352 17.2066V35.5837H117.302V17.2066H113.713V11.4268H125.941V17.2066H122.352Z" fill="#FFFAFA"/>
<path d="M158.506 35.5837H152.605L150.079 26.3581H148.405V35.5837H143.088V11.4268H152.126C154.12 11.4268 155.662 12.0937 156.778 13.3904C157.895 14.6872 158.426 16.4286 158.426 18.5405C158.426 19.9484 158.214 21.1711 157.815 22.2455C157.416 23.32 156.592 24.2463 155.343 25.0614L158.506 35.5837ZM148.405 21.1711H150.664C151.329 21.1711 151.86 20.9858 152.286 20.5783C152.684 20.1707 152.897 19.6149 152.897 18.8739C152.897 17.3178 152.206 16.5397 150.85 16.5397H148.405V21.1711Z" fill="#FFFAFA"/>
<path d="M191.628 29.8039V35.5837H178.603V11.4268H191.628V16.9843H183.813V20.5041H190.14V25.8765H183.813V29.8039H191.628Z" fill="#FFFAFA"/>
<path d="M200.852 17.2066V35.5837H195.802V17.2066H192.213V11.4268H204.441V17.2066H200.852Z" fill="#FFFAFA"/>
<path d="M80.4033 22.0602H88.2188V35.5836H84.9225V33.0642C83.8591 34.9908 82.2641 35.9541 80.1375 35.9541C77.9045 35.9541 76.0702 34.8797 74.6347 32.6937C73.1992 30.5077 72.4814 27.5807 72.4814 23.8757C72.4814 20.2817 73.1726 17.2436 74.5815 14.7612C75.9639 12.3159 78.0374 11.0562 80.802 11.0562C82.8755 11.0562 84.5237 11.7972 85.7997 13.2421C87.0757 14.7242 87.8732 16.799 88.2454 19.4666H83.0084C82.6894 17.4289 81.9185 16.3914 80.7223 16.3914C78.9944 16.3914 78.1171 18.6886 78.1171 23.3199C78.1171 26.0987 78.383 27.9512 78.9412 28.8404C79.4995 29.7296 80.1906 30.1743 80.9615 30.1743C81.5995 30.1743 82.1578 29.9149 82.6097 29.3591C83.0616 28.8034 83.3009 28.0624 83.3009 27.1361H80.4299V22.0602H80.4033Z" fill="#FFFAFA"/>
<path d="M141.493 35.5837H136.601L135.618 30.8413L134.608 25.543L133.278 18.5405L131.976 25.543L130.966 30.8413L130.062 35.5837H125.091L130.434 11.4268H136.07L141.493 35.5837Z" fill="#FFFAFA"/>
<path d="M167.97 22.0602H175.785V35.5836H172.489V33.0642C171.426 34.9908 169.831 35.9541 167.704 35.9541C165.471 35.9541 163.637 34.8797 162.201 32.6937C160.766 30.5077 160.048 27.5807 160.048 23.8757C160.048 20.2817 160.739 17.2436 162.121 14.7612C163.504 12.3159 165.577 11.0562 168.342 11.0562C170.415 11.0562 172.064 11.7972 173.34 13.2421C174.589 14.7242 175.413 16.799 175.785 19.4666L170.628 20.1706C170.362 17.6512 169.591 16.3914 168.262 16.3914C166.508 16.3914 165.657 18.6886 165.657 23.3199C165.657 26.0987 165.949 27.9512 166.508 28.8404C167.066 29.7296 167.73 30.1743 168.528 30.1743C169.166 30.1743 169.724 29.9149 170.176 29.3591C170.628 28.8034 170.867 28.0624 170.867 27.1361H167.996V22.0602H167.97Z" fill="#FFFAFA"/>
</svg>
